<?xml version="1.0" encoding="UTF-8" standalone="no"?>
<svg width="100px" height="100px" viewBox="0 0 100 100" version="1.1" xmlns="http://www.w3.org/2000/svg" xmlns:xlink="http://www.w3.org/1999/xlink" xmlns:sketch="http://www.bohemiancoding.com/sketch/ns">
    <!-- Generator: Sketch 3.0.3 (7891) - http://www.bohemiancoding.com/sketch -->
    <title>logo</title>
    <desc>Created with Sketch.</desc>
    <defs></defs>
    <g id="Page-1" stroke="none" stroke-width="1" fill="none" fill-rule="evenodd" sketch:type="MSPage">
        <g id="logo" sketch:type="MSArtboardGroup" fill="#FFFFFF">
            <g sketch:type="MSLayerGroup" transform="translate(18.000000, 13.000000)" id="Group">
                <g sketch:type="MSShapeGroup">
                    <path d="M27.5965625,58.5085147 C29.5225937,60.7954065 29.0935938,62.1052714 34.6389062,62.0144606 C40.1825937,61.9232444 39.7105312,60.6275687 41.562625,58.2790552 C42.9613437,56.5029741 45.8160625,51.0227038 48.4449062,44.9250011 C45.6194375,45.5586498 43.5491875,47.961893 40.5587812,50.6975687 C36.515375,54.3960822 32.2964687,54.9944606 28.3538125,52.5251363 C27.6445,52.080812 26.869375,51.6693255 26.0694687,51.2801363 C26.5415312,52.8040552 27.9053125,54.0024336 28.3196875,54.3393255 C28.3879375,54.394866 28.4054062,54.4913525 28.361125,54.5667579 C28.12875,54.9624336 27.4365,56.1997309 26.9526562,57.6782444 C27.194375,58.007839 27.4117188,58.2900011 27.5965625,58.5085147 L27.5965625,58.5085147 Z M34.1709063,60.347839 C32.6970313,60.347839 31.5315,60.0020282 31.5315,60.0020282 L31.5315,60.0004065 C31.5315,59.7101363 32.8668437,59.8163525 34.1375938,59.8163525 C35.7122187,59.8163525 37.2880625,59.7531093 37.2880625,59.7531093 C36.4820625,60.1045957 35.2141562,60.347839 34.1709063,60.347839 L34.1709063,60.347839 Z M34.5373437,56.4320282 C37.487125,56.3100011 39.38025,54.6332444 39.4123437,56.582839 C39.4123437,56.582839 33.4607813,58.230812 28.7694063,56.3716228 C28.7694063,56.3720282 31.291,56.565812 34.5373437,56.4320282 L34.5373437,56.4320282 Z" id="Shape"></path>
                    <path d="M37.3521076,36.4021622 C37.3106701,36.4872973 37.2103264,36.5254054 37.1229826,36.4893243 C37.0356389,36.4532432 36.9917639,36.3551351 37.0230451,36.2659459 C39.5600764,29.0902703 44.5382639,20.1871622 52.6417326,18.2716216 C52.7457326,18.2468919 52.8318576,18.1747297 52.8741076,18.077027 C52.9167639,17.9793243 52.9098576,17.867027 52.8566389,17.7745946 C49.9612951,12.7731081 42.5565764,9.49824324 40.6764514,9.52945946 C40.9128889,9.41918919 47.2199201,7.91635135 50.8396076,9.80878378 C50.9724514,9.87851351 51.1349514,9.86067568 51.2503264,9.76418919 C51.3644826,9.6672973 51.4038889,9.51243243 51.3628576,9.3677027 C49.4819201,2.71621622 41.7420451,-1.42108547e-14 37.3236701,-1.42108547e-14 C22.4825451,-1.42108547e-14 11.3033576,20.1097297 15.0774201,33.9583784 C13.6457951,28.7051351 12.7829201,23.4178378 14.0471701,16.5839189 C5.69426385,27.7208108 -0.0448298975,40.8437838 0.000263852546,43.5940541 C0.0937013525,49.2547297 5.64632635,52.1148649 11.1038889,57.1398649 C9.63813885,52.6998649 7.7291701,49.7517568 6.24513885,47.9318919 C16.3477639,55.9224324 17.0107639,69.3125676 27.2421701,73.8462162 C29.2181701,73.1931081 30.0603264,72.2286486 31.9290764,70.9702703 C19.0964514,60.6158108 22.9038264,43.277027 10.4652639,44.1117568 C21.2097639,50.2990541 17.4279826,62.5864865 28.5685764,70.9516216 C16.2421389,64.0248649 11.0462014,35.8654054 3.9559201,48.8464865 C2.5762951,44.3172973 6.72370135,42.0287838 9.30663885,41.5272973 C17.0404201,40.0260811 27.1349201,48.8655405 33.1116701,48.7666216 C38.6902951,48.6745946 41.8484826,41.3533784 52.0079826,41.1859459 C62.0850139,41.0201351 63.7672951,46.9816216 62.5383889,49.0427027 C58.8277014,39.54 46.6816389,69.6377027 35.8709201,73.185 C50.0559514,64.6191892 51.4660451,44.0489189 59.5130451,45.5027027 C49.5440764,38.2856757 46.3871076,64.3856757 35.8766076,71.2735135 C33.6800139,72.8728378 31.2262639,74.0448649 28.8622951,74.7693243 C36.7142951,76.4647297 41.9569514,72.8918919 46.8721701,67.5194595 C48.1022951,66.1747297 60.8963264,56.1283784 64.5785764,48.1597297 C65.2939826,46.6122973 65.0445451,44.7867568 63.9399514,43.487027 C58.5136701,37.1022973 46.5321389,36.917027 37.8798264,42.2801351 C37.8306701,42.3105405 37.7664826,42.2987838 37.7311389,42.252973 C37.6957951,42.2071622 37.7010764,42.1418919 37.7433264,42.1021622 C46.5532639,33.8404054 59.3387639,34.5081081 64.3409201,39.3413514 C64.4741701,39.4698649 64.6764826,39.495 64.8373576,39.402973 C64.9982326,39.3105405 65.0782639,39.1236486 65.0335764,38.9436486 C60.6383576,21.1431081 43.8521076,22.9143243 37.3521076,36.4021622 L37.3521076,36.4021622 Z M30.0948576,44.157973 C30.1801701,44.372027 30.1237014,44.6160811 29.9526701,44.7713514 C29.7820451,44.9262162 29.5330139,44.9594595 29.3274514,44.8544595 C23.6740764,41.9687838 19.1777014,39.8659459 15.4572639,39.0855405 C13.2513264,38.622973 6.9800451,38.8787838 4.67132635,41.9485135 C6.5616076,38.6286486 10.4729826,37.4318919 15.1960451,37.3540541 C19.4600451,37.2839189 23.3291701,39.045 23.2877326,36.5306757 C24.3009201,26.4304054 20.2497951,12.1540541 35.4752326,4.11891892 C19.3365451,13.9427027 27.6845764,38.1125676 30.0948576,44.157973 L30.0948576,44.157973 Z" id="Shape"></path>
                </g>
            </g>
        </g>
    </g>
</svg>